<svg width="34" height="36" viewBox="0 0 34 36" fill="none" xmlns="http://www.w3.org/2000/svg">
<path d="M3.3374 16.3999V21.1999C3.3374 27.2335 3.3374 30.2511 5.22123 32.1247C7.10506 33.9983 10.1349 33.9999 16.1963 33.9999H17.8037C23.865 33.9999 26.8965 33.9999 28.7787 32.1247C30.661 30.2495 30.6626 27.2335 30.6626 21.1999V16.3999" stroke="#232323" stroke-width="2.8125"/>
<path d="M12.9817 2H21.0185L22.0665 12.4272C22.1355 13.1308 22.0559 13.841 21.8327 14.5122C21.6095 15.1834 21.2477 15.8006 20.7705 16.3242C20.2933 16.8479 19.7114 17.2663 19.062 17.5527C18.4127 17.8391 17.7103 17.987 17.0001 17.987C16.2898 17.987 15.5875 17.8391 14.9381 17.5527C14.2888 17.2663 13.7068 16.8479 13.2296 16.3242C12.7525 15.8006 12.3906 15.1834 12.1674 14.5122C11.9443 13.841 11.8646 13.1308 11.9337 12.4272L12.9817 2Z" stroke="#232323" stroke-width="2.8125"/>
<path d="M3.06416 7.3616C3.35027 5.9376 3.49333 5.2256 3.78426 4.648C4.0874 4.04646 4.51423 3.5151 5.03704 3.0884C5.55985 2.6617 6.16696 2.34921 6.81896 2.1712C7.44583 2 8.17558 2 9.63506 2H12.9816L11.8163 13.592C11.7548 14.2554 11.5579 14.8993 11.2377 15.4844C10.9175 16.0694 10.4807 16.5833 9.95411 16.9944C9.42749 17.4056 8.82211 17.7055 8.17502 17.8757C7.52794 18.0459 6.85277 18.0828 6.19084 17.9842C5.52892 17.8857 4.89416 17.6537 4.32544 17.3024C3.75672 16.9512 3.266 16.4881 2.88331 15.9415C2.50063 15.3949 2.23404 14.7764 2.09986 14.1237C1.96568 13.471 1.96673 12.7979 2.10296 12.1456L3.06416 7.3616ZM30.9358 7.3616C30.6497 5.9376 30.5067 5.2256 30.2157 4.648C29.9126 4.04646 29.4858 3.5151 28.963 3.0884C28.4401 2.6617 27.833 2.34921 27.181 2.1712C26.5542 2 25.8244 2 24.3649 2H21.0184L22.1837 13.592C22.2452 14.2554 22.4421 14.8993 22.7623 15.4844C23.0825 16.0694 23.5193 16.5833 24.0459 16.9944C24.5725 17.4056 25.1779 17.7055 25.825 17.8757C26.4721 18.0459 27.1472 18.0828 27.8092 17.9842C28.4711 17.8857 29.1058 17.6537 29.6746 17.3024C30.2433 16.9512 30.734 16.4881 31.1167 15.9415C31.4994 15.3949 31.766 14.7764 31.9001 14.1237C32.0343 13.471 32.0333 12.7979 31.897 12.1456L30.9358 7.3616Z" stroke="#232323" stroke-width="2.8125"/>
<path d="M12.9816 33.1999V28.3999C12.9816 26.9039 12.9816 26.1567 13.3046 25.5999C13.5163 25.2351 13.8206 24.9321 14.1871 24.7215C14.7465 24.3999 15.4971 24.3999 17 24.3999C18.5029 24.3999 19.2535 24.3999 19.8129 24.7215C20.1794 24.9321 20.4837 25.2351 20.6953 25.5999C21.0184 26.1567 21.0184 26.9039 21.0184 28.3999V33.1999" stroke="#232323" stroke-width="2.8125" stroke-linecap="round"/>
</svg>
