<svg width="43" height="47" viewBox="0 0 43 47" fill="none" xmlns="http://www.w3.org/2000/svg">
<path d="M3.2832 21.3501V27.8001C3.2832 35.9077 3.2832 39.9626 5.79498 42.4803C8.30675 44.9979 12.3466 45.0001 20.4284 45.0001H22.5716C30.6534 45.0001 34.6954 45.0001 37.205 42.4803C39.7146 39.9605 39.7168 35.9077 39.7168 27.8001V21.3501" stroke="white" stroke-width="2.8125"/>
<path d="M16.1421 2H26.8579L28.2552 16.0116C28.3473 16.957 28.2411 17.9114 27.9435 18.8133C27.6459 19.7151 27.1635 20.5446 26.5273 21.2482C25.891 21.9518 25.1151 22.5141 24.2493 22.8989C23.3835 23.2837 22.447 23.4825 21.5 23.4825C20.553 23.4825 19.6165 23.2837 18.7507 22.8989C17.8849 22.5141 17.109 21.9518 16.4727 21.2482C15.8365 20.5446 15.3541 19.7151 15.0565 18.8133C14.7589 17.9114 14.6527 16.957 14.7448 16.0116L16.1421 2Z" stroke="white" stroke-width="2.8125"/>
<path d="M2.91888 9.20465C3.30036 7.29115 3.4911 6.3344 3.87901 5.55825C4.2832 4.74993 4.85231 4.03591 5.54939 3.46254C6.24647 2.88916 7.05595 2.46925 7.92528 2.23005C8.76111 2 9.7341 2 11.6801 2H16.1421L14.5883 17.5768C14.5063 18.4682 14.2438 19.3335 13.8169 20.1196C13.39 20.9058 12.8076 21.5963 12.1055 22.1488C11.4033 22.7013 10.5961 23.1042 9.73337 23.3329C8.87059 23.5616 7.97036 23.6113 7.08779 23.4788C6.20522 23.3464 5.35888 23.0346 4.60059 22.5626C3.84229 22.0907 3.188 21.4684 2.67775 20.7339C2.16751 19.9995 1.81205 19.1683 1.63314 18.2912C1.45424 17.4141 1.45564 16.5097 1.63728 15.6332L2.91888 9.20465ZM40.0811 9.20465C39.6996 7.29115 39.5089 6.3344 39.121 5.55825C38.7168 4.74993 38.1477 4.03591 37.4506 3.46254C36.7535 2.88916 35.944 2.46925 35.0747 2.23005C34.2389 2 33.2659 2 31.3199 2H26.8579L28.4117 17.5768C28.4937 18.4682 28.7562 19.3335 29.1831 20.1196C29.61 20.9058 30.1924 21.5963 30.8945 22.1488C31.5967 22.7013 32.4039 23.1042 33.2666 23.3329C34.1294 23.5616 35.0296 23.6113 35.9122 23.4788C36.7948 23.3464 37.6411 23.0346 38.3994 22.5626C39.1577 22.0907 39.812 21.4684 40.3222 20.7339C40.8325 19.9995 41.188 19.1683 41.3669 18.2912C41.5458 17.4141 41.5444 16.5097 41.3627 15.6332L40.0811 9.20465Z" stroke="white" stroke-width="2.8125"/>
<path d="M16.1421 43.9251V37.4751C16.1421 35.4648 16.1421 34.4608 16.5729 33.7126C16.855 33.2224 17.2608 32.8153 17.7495 32.5322C18.4953 32.1001 19.4961 32.1001 21.5 32.1001C23.5038 32.1001 24.5047 32.1001 25.2505 32.5322C25.7391 32.8153 26.1449 33.2224 26.4271 33.7126C26.8578 34.4608 26.8578 35.4648 26.8578 37.4751V43.9251" stroke="white" stroke-width="2.8125" stroke-linecap="round"/>
</svg>
